<svg xmlns="http://www.w3.org/2000/svg" xmlns:xlink="http://www.w3.org/1999/xlink" width="160" zoomAndPan="magnify" viewBox="0 0 120 135.000003" height="180" preserveAspectRatio="xMidYMid meet" version="1.0"><defs><g/><clipPath id="61c5853a6c"><path d="M 61 33.457031 L 71 33.457031 L 71 62.492188 L 61 62.492188 Z M 61 33.457031 " clip-rule="nonzero"/></clipPath><clipPath id="71a32fe8f3"><path d="M 65 39 L 85.4375 39 L 85.4375 62.492188 L 65 62.492188 Z M 65 39 " clip-rule="nonzero"/></clipPath><clipPath id="d861692587"><path d="M 49 33.457031 L 63 33.457031 L 63 62.492188 L 49 62.492188 Z M 49 33.457031 " clip-rule="nonzero"/></clipPath><clipPath id="5e2dd2aee3"><path d="M 34.8125 39 L 55 39 L 55 62.492188 L 34.8125 62.492188 Z M 34.8125 39 " clip-rule="nonzero"/></clipPath></defs><g clip-path="url(#61c5853a6c)"><path fill="#6247aa" d="M 65.851562 36.222656 C 65.851562 35.335938 66.574219 34.613281 67.460938 34.613281 C 68.347656 34.613281 69.066406 35.335938 69.066406 36.222656 C 69.066406 37.109375 68.347656 37.828125 67.460938 37.828125 C 66.574219 37.828125 65.851562 37.109375 65.851562 36.222656 Z M 68.164062 38.722656 C 69.355469 38.390625 70.203125 37.226562 70.042969 35.894531 C 69.898438 34.714844 68.941406 33.769531 67.761719 33.636719 C 66.1875 33.460938 64.855469 34.683594 64.855469 36.222656 C 64.855469 37.371094 65.601562 38.34375 66.636719 38.6875 L 66.636719 52.902344 L 61.550781 57.988281 L 61.550781 74.757812 C 61.550781 75.179688 61.890625 75.519531 62.3125 75.519531 C 62.734375 75.519531 63.078125 75.179688 63.078125 74.757812 L 63.078125 58.621094 L 68.164062 53.535156 L 68.164062 38.722656 " fill-opacity="1" fill-rule="nonzero"/></g><g clip-path="url(#71a32fe8f3)"><path fill="#816cbb" d="M 82.40625 54.589844 C 81.519531 54.589844 80.800781 53.871094 80.800781 52.984375 C 80.800781 52.097656 81.519531 51.378906 82.40625 51.378906 C 83.296875 51.378906 84.015625 52.097656 84.015625 52.984375 C 84.015625 53.871094 83.296875 54.589844 82.40625 54.589844 Z M 73.324219 44.097656 C 72.4375 44.097656 71.71875 43.378906 71.71875 42.492188 C 71.71875 41.601562 72.4375 40.882812 73.324219 40.882812 C 74.210938 40.882812 74.929688 41.601562 74.929688 42.492188 C 74.929688 43.378906 74.210938 44.097656 73.324219 44.097656 Z M 74.929688 55.585938 C 75.816406 55.585938 76.535156 56.304688 76.535156 57.191406 C 76.535156 58.078125 75.816406 58.796875 74.929688 58.796875 C 74.042969 58.796875 73.324219 58.078125 73.324219 57.191406 C 73.324219 56.304688 74.042969 55.585938 74.929688 55.585938 Z M 82.648438 50.390625 C 81.421875 50.285156 80.359375 51.023438 79.96875 52.089844 L 74.101562 52.089844 L 74.101562 44.972656 C 75.222656 44.625 76.015625 43.539062 75.917969 42.285156 C 75.824219 41.054688 74.847656 40.039062 73.621094 39.90625 C 72.050781 39.730469 70.722656 40.957031 70.722656 42.492188 C 70.722656 43.667969 71.503906 44.660156 72.578125 44.980469 L 72.578125 52.535156 L 65.066406 60.046875 L 65.066406 74.757812 C 65.066406 75.179688 65.40625 75.519531 65.828125 75.519531 C 66.25 75.519531 66.59375 75.179688 66.59375 74.757812 L 66.59375 61.125 L 72.039062 61.125 L 73.6875 59.476562 C 74.078125 59.691406 74.53125 59.808594 75.015625 59.792969 C 76.410156 59.75 77.542969 58.570312 77.535156 57.175781 C 77.523438 55.761719 76.386719 54.613281 74.972656 54.589844 C 73.582031 54.570312 72.394531 55.679688 72.332031 57.070312 C 72.308594 57.546875 72.417969 57.992188 72.621094 58.386719 L 71.40625 59.601562 L 67.671875 59.601562 L 73.65625 53.617188 L 79.886719 53.617188 C 80.167969 54.746094 81.1875 55.585938 82.40625 55.585938 C 83.945312 55.585938 85.167969 54.257812 84.992188 52.683594 C 84.859375 51.472656 83.863281 50.5 82.648438 50.390625 " fill-opacity="1" fill-rule="nonzero"/></g><g clip-path="url(#d861692587)"><path fill="#816cbb" d="M 60.871094 45.605469 C 60.128906 46.09375 59.132812 45.886719 58.644531 45.144531 C 58.160156 44.402344 58.363281 43.40625 59.105469 42.921875 C 59.847656 42.433594 60.84375 42.640625 61.332031 43.382812 C 61.816406 44.125 61.609375 45.121094 60.871094 45.605469 Z M 50.925781 36.222656 C 50.925781 35.335938 51.644531 34.613281 52.53125 34.613281 C 53.417969 34.613281 54.136719 35.335938 54.136719 36.222656 C 54.136719 37.109375 53.417969 37.828125 52.53125 37.828125 C 51.644531 37.828125 50.925781 37.109375 50.925781 36.222656 Z M 62.15625 42.820312 C 61.371094 41.644531 59.789062 41.308594 58.59375 42.066406 C 57.421875 42.808594 57.039062 44.390625 57.746094 45.585938 C 57.988281 45.996094 58.328125 46.3125 58.710938 46.527344 L 58.363281 48.210938 L 53.355469 51.496094 L 53.355469 38.6875 C 54.453125 38.324219 55.226562 37.246094 55.125 36.003906 C 55.027344 34.777344 54.050781 33.769531 52.828125 33.636719 C 51.257812 33.460938 49.929688 34.6875 49.929688 36.222656 C 49.929688 37.414062 50.734375 38.417969 51.828125 38.722656 L 51.828125 53.535156 L 56.914062 58.621094 L 56.914062 74.757812 C 56.914062 75.179688 57.257812 75.519531 57.679688 75.519531 C 58.097656 75.519531 58.441406 75.179688 58.441406 74.757812 L 58.441406 57.988281 L 53.609375 53.15625 L 59.726562 49.140625 L 60.203125 46.855469 C 60.648438 46.820312 61.089844 46.667969 61.484375 46.390625 C 62.628906 45.589844 62.925781 43.984375 62.15625 42.820312 " fill-opacity="1" fill-rule="nonzero"/></g><g clip-path="url(#5e2dd2aee3)"><path fill="#6247aa" d="M 45.0625 42.492188 C 45.0625 41.601562 45.78125 40.882812 46.667969 40.882812 C 47.554688 40.882812 48.273438 41.601562 48.273438 42.492188 C 48.273438 43.378906 47.554688 44.097656 46.667969 44.097656 C 45.78125 44.097656 45.0625 43.378906 45.0625 42.492188 Z M 45.0625 58.796875 C 44.175781 58.796875 43.453125 58.078125 43.453125 57.191406 C 43.453125 56.304688 44.175781 55.585938 45.0625 55.585938 C 45.949219 55.585938 46.667969 56.304688 46.667969 57.191406 C 46.667969 58.078125 45.949219 58.796875 45.0625 58.796875 Z M 37.582031 54.589844 C 36.695312 54.589844 35.976562 53.871094 35.976562 52.984375 C 35.976562 52.097656 36.695312 51.378906 37.582031 51.378906 C 38.46875 51.378906 39.191406 52.097656 39.191406 52.984375 C 39.191406 53.871094 38.46875 54.589844 37.582031 54.589844 Z M 47.414062 44.980469 C 48.546875 44.644531 49.355469 43.558594 49.261719 42.296875 C 49.171875 41.0625 48.195312 40.039062 46.964844 39.902344 C 45.394531 39.730469 44.066406 40.957031 44.066406 42.492188 C 44.066406 43.65625 44.832031 44.644531 45.890625 44.972656 L 45.890625 52.089844 L 40.023438 52.089844 C 39.632812 51.023438 38.570312 50.28125 37.34375 50.390625 C 36.128906 50.5 35.132812 51.472656 34.996094 52.683594 C 34.824219 54.257812 36.046875 55.585938 37.582031 55.585938 C 38.800781 55.585938 39.824219 54.746094 40.105469 53.617188 L 46.335938 53.617188 L 52.320312 59.601562 L 48.585938 59.601562 L 47.371094 58.386719 C 47.574219 57.992188 47.683594 57.546875 47.660156 57.070312 C 47.59375 55.679688 46.410156 54.570312 45.019531 54.589844 C 43.605469 54.613281 42.46875 55.761719 42.457031 57.175781 C 42.449219 58.570312 43.582031 59.75 44.976562 59.792969 C 45.457031 59.808594 45.914062 59.691406 46.304688 59.476562 L 47.953125 61.125 L 53.398438 61.125 L 53.398438 74.757812 C 53.398438 75.179688 53.742188 75.519531 54.164062 75.519531 C 54.585938 75.519531 54.925781 75.179688 54.925781 74.757812 L 54.925781 60.046875 L 47.414062 52.535156 L 47.414062 44.980469 " fill-opacity="1" fill-rule="nonzero"/></g><g fill="#011c43" fill-opacity="1"><g transform="translate(19.161205, 79.9969)"><g><path d="M 7.328125 0.15625 C 6.003906 0.15625 4.847656 -0.113281 3.859375 -0.65625 C 2.878906 -1.195312 2.125 -1.957031 1.59375 -2.9375 C 1.0625 -3.925781 0.796875 -5.070312 0.796875 -6.375 C 0.796875 -7.65625 1.0625 -8.785156 1.59375 -9.765625 C 2.125 -10.753906 2.878906 -11.519531 3.859375 -12.0625 C 4.847656 -12.601562 6.003906 -12.875 7.328125 -12.875 C 8.160156 -12.875 8.960938 -12.75 9.734375 -12.5 C 10.515625 -12.25 11.144531 -11.910156 11.625 -11.484375 L 10.609375 -9.109375 C 9.578125 -9.859375 8.503906 -10.234375 7.390625 -10.234375 C 6.367188 -10.234375 5.582031 -9.90625 5.03125 -9.25 C 4.488281 -8.601562 4.21875 -7.644531 4.21875 -6.375 C 4.21875 -5.09375 4.488281 -4.125 5.03125 -3.46875 C 5.582031 -2.8125 6.367188 -2.484375 7.390625 -2.484375 C 8.503906 -2.484375 9.578125 -2.859375 10.609375 -3.609375 L 11.625 -1.234375 C 11.144531 -0.804688 10.515625 -0.46875 9.734375 -0.21875 C 8.960938 0.03125 8.160156 0.15625 7.328125 0.15625 Z M 7.328125 0.15625 "/></g></g></g><g fill="#011c43" fill-opacity="1"><g transform="translate(32.931084, 79.9969)"><g><path d="M 7.203125 0.15625 C 5.898438 0.15625 4.765625 -0.101562 3.796875 -0.625 C 2.835938 -1.15625 2.097656 -1.914062 1.578125 -2.90625 C 1.054688 -3.894531 0.796875 -5.050781 0.796875 -6.375 C 0.796875 -7.695312 1.054688 -8.84375 1.578125 -9.8125 C 2.109375 -10.789062 2.851562 -11.546875 3.8125 -12.078125 C 4.769531 -12.609375 5.898438 -12.875 7.203125 -12.875 C 8.492188 -12.875 9.617188 -12.609375 10.578125 -12.078125 C 11.535156 -11.546875 12.269531 -10.789062 12.78125 -9.8125 C 13.300781 -8.84375 13.5625 -7.695312 13.5625 -6.375 C 13.5625 -5.050781 13.300781 -3.894531 12.78125 -2.90625 C 12.269531 -1.914062 11.535156 -1.15625 10.578125 -0.625 C 9.617188 -0.101562 8.492188 0.15625 7.203125 0.15625 Z M 7.203125 -2.390625 C 8.148438 -2.390625 8.894531 -2.726562 9.4375 -3.40625 C 9.976562 -4.082031 10.25 -5.070312 10.25 -6.375 C 10.25 -7.65625 9.976562 -8.632812 9.4375 -9.3125 C 8.894531 -9.988281 8.148438 -10.328125 7.203125 -10.328125 C 6.242188 -10.328125 5.492188 -9.992188 4.953125 -9.328125 C 4.421875 -8.660156 4.15625 -7.675781 4.15625 -6.375 C 4.15625 -5.0625 4.421875 -4.066406 4.953125 -3.390625 C 5.492188 -2.722656 6.242188 -2.390625 7.203125 -2.390625 Z M 8.15625 -13.8125 L 6.203125 -13.8125 L 8.0625 -16.625 L 10.953125 -16.625 Z M 8.15625 -13.8125 "/></g></g></g><g fill="#011c43" fill-opacity="1"><g transform="translate(48.844071, 79.9969)"><g><path d="M 1.140625 -12.71875 L 6.34375 -12.71875 C 7.75 -12.71875 8.957031 -12.460938 9.96875 -11.953125 C 10.988281 -11.453125 11.769531 -10.722656 12.3125 -9.765625 C 12.851562 -8.816406 13.125 -7.6875 13.125 -6.375 C 13.125 -5.050781 12.851562 -3.910156 12.3125 -2.953125 C 11.78125 -1.992188 11.003906 -1.257812 9.984375 -0.75 C 8.972656 -0.25 7.757812 0 6.34375 0 L 1.140625 0 Z M 6.109375 -2.671875 C 7.347656 -2.671875 8.273438 -2.976562 8.890625 -3.59375 C 9.503906 -4.207031 9.8125 -5.132812 9.8125 -6.375 C 9.8125 -8.8125 8.578125 -10.03125 6.109375 -10.03125 L 4.5 -10.03125 L 4.5 -2.671875 Z M 6.109375 -2.671875 "/></g></g></g><g fill="#011c43" fill-opacity="1"><g transform="translate(64.328438, 79.9969)"><g><path d="M 1.140625 0 L 1.140625 -12.71875 L 4.5 -12.71875 L 4.5 0 Z M 1.140625 0 "/></g></g></g><g fill="#011c43" fill-opacity="1"><g transform="translate(71.508265, 79.9969)"><g><path d="M 12.4375 -7.171875 L 12.4375 -0.796875 C 11.75 -0.492188 10.984375 -0.257812 10.140625 -0.09375 C 9.304688 0.0703125 8.453125 0.15625 7.578125 0.15625 C 6.191406 0.15625 4.988281 -0.101562 3.96875 -0.625 C 2.957031 -1.144531 2.175781 -1.894531 1.625 -2.875 C 1.070312 -3.863281 0.796875 -5.03125 0.796875 -6.375 C 0.796875 -7.6875 1.070312 -8.832031 1.625 -9.8125 C 2.175781 -10.789062 2.953125 -11.546875 3.953125 -12.078125 C 4.953125 -12.609375 6.117188 -12.875 7.453125 -12.875 C 8.367188 -12.875 9.234375 -12.753906 10.046875 -12.515625 C 10.859375 -12.273438 11.519531 -11.945312 12.03125 -11.53125 L 10.984375 -9.15625 C 10.398438 -9.539062 9.835938 -9.816406 9.296875 -9.984375 C 8.753906 -10.160156 8.171875 -10.25 7.546875 -10.25 C 6.421875 -10.25 5.582031 -9.929688 5.03125 -9.296875 C 4.476562 -8.660156 4.203125 -7.6875 4.203125 -6.375 C 4.203125 -5.019531 4.488281 -4.015625 5.0625 -3.359375 C 5.632812 -2.703125 6.523438 -2.375 7.734375 -2.375 C 8.296875 -2.375 8.851562 -2.429688 9.40625 -2.546875 L 9.40625 -4.90625 L 7.203125 -4.90625 L 7.203125 -7.171875 Z M 12.4375 -7.171875 "/></g></g></g><g fill="#011c43" fill-opacity="1"><g transform="translate(86.456854, 79.9969)"><g><path d="M 7.203125 0.15625 C 5.898438 0.15625 4.765625 -0.101562 3.796875 -0.625 C 2.835938 -1.15625 2.097656 -1.914062 1.578125 -2.90625 C 1.054688 -3.894531 0.796875 -5.050781 0.796875 -6.375 C 0.796875 -7.695312 1.054688 -8.84375 1.578125 -9.8125 C 2.109375 -10.789062 2.851562 -11.546875 3.8125 -12.078125 C 4.769531 -12.609375 5.898438 -12.875 7.203125 -12.875 C 8.492188 -12.875 9.617188 -12.609375 10.578125 -12.078125 C 11.535156 -11.546875 12.269531 -10.789062 12.78125 -9.8125 C 13.300781 -8.84375 13.5625 -7.695312 13.5625 -6.375 C 13.5625 -5.050781 13.300781 -3.894531 12.78125 -2.90625 C 12.269531 -1.914062 11.535156 -1.15625 10.578125 -0.625 C 9.617188 -0.101562 8.492188 0.15625 7.203125 0.15625 Z M 7.203125 -2.390625 C 8.148438 -2.390625 8.894531 -2.726562 9.4375 -3.40625 C 9.976562 -4.082031 10.25 -5.070312 10.25 -6.375 C 10.25 -7.65625 9.976562 -8.632812 9.4375 -9.3125 C 8.894531 -9.988281 8.148438 -10.328125 7.203125 -10.328125 C 6.242188 -10.328125 5.492188 -9.992188 4.953125 -9.328125 C 4.421875 -8.660156 4.15625 -7.675781 4.15625 -6.375 C 4.15625 -5.0625 4.421875 -4.066406 4.953125 -3.390625 C 5.492188 -2.722656 6.242188 -2.390625 7.203125 -2.390625 Z M 7.203125 -2.390625 "/></g></g></g><g fill="#011c43" fill-opacity="1"><g transform="translate(6.442272, 88.779796)"><g><path d="M 3.015625 -5.59375 C 3.722656 -5.59375 4.28125 -5.421875 4.6875 -5.078125 C 5.09375 -4.742188 5.296875 -4.28125 5.296875 -3.6875 C 5.296875 -3.082031 5.09375 -2.609375 4.6875 -2.265625 C 4.28125 -1.929688 3.722656 -1.765625 3.015625 -1.765625 L 1.5 -1.765625 L 1.5 0 L 0.90625 0 L 0.90625 -5.59375 Z M 2.984375 -2.28125 C 3.546875 -2.28125 3.972656 -2.398438 4.265625 -2.640625 C 4.554688 -2.890625 4.703125 -3.238281 4.703125 -3.6875 C 4.703125 -4.132812 4.554688 -4.476562 4.265625 -4.71875 C 3.972656 -4.96875 3.546875 -5.09375 2.984375 -5.09375 L 1.5 -5.09375 L 1.5 -2.28125 Z M 2.984375 -2.28125 "/></g></g></g><g fill="#011c43" fill-opacity="1"><g transform="translate(14.880994, 88.779796)"><g><path d="M 4.421875 -1.5 L 1.296875 -1.5 L 0.625 0 L 0.015625 0 L 2.578125 -5.59375 L 3.15625 -5.59375 L 5.71875 0 L 5.09375 0 Z M 4.203125 -1.96875 L 2.859375 -4.984375 L 1.515625 -1.96875 Z M 4.203125 -1.96875 "/></g></g></g><g fill="#011c43" fill-opacity="1"><g transform="translate(23.311707, 88.779796)"><g><path d="M 4.734375 0 L 3.453125 -1.796875 C 3.304688 -1.785156 3.160156 -1.78125 3.015625 -1.78125 L 1.5 -1.78125 L 1.5 0 L 0.90625 0 L 0.90625 -5.59375 L 3.015625 -5.59375 C 3.722656 -5.59375 4.28125 -5.421875 4.6875 -5.078125 C 5.09375 -4.742188 5.296875 -4.28125 5.296875 -3.6875 C 5.296875 -3.25 5.179688 -2.878906 4.953125 -2.578125 C 4.734375 -2.273438 4.421875 -2.054688 4.015625 -1.921875 L 5.390625 0 Z M 2.984375 -2.28125 C 3.546875 -2.28125 3.972656 -2.398438 4.265625 -2.640625 C 4.554688 -2.890625 4.703125 -3.238281 4.703125 -3.6875 C 4.703125 -4.132812 4.554688 -4.476562 4.265625 -4.71875 C 3.972656 -4.96875 3.546875 -5.09375 2.984375 -5.09375 L 1.5 -5.09375 L 1.5 -2.28125 Z M 2.984375 -2.28125 "/></g></g></g><g fill="#011c43" fill-opacity="1"><g transform="translate(31.790455, 88.779796)"><g><path d="M 4.421875 -1.5 L 1.296875 -1.5 L 0.625 0 L 0.015625 0 L 2.578125 -5.59375 L 3.15625 -5.59375 L 5.71875 0 L 5.09375 0 Z M 4.203125 -1.96875 L 2.859375 -4.984375 L 1.515625 -1.96875 Z M 4.203125 -1.96875 "/></g></g></g><g fill="#011c43" fill-opacity="1"><g transform="translate(40.221169, 88.779796)"><g/></g></g><g fill="#011c43" fill-opacity="1"><g transform="translate(45.009352, 88.779796)"><g><path d="M 4.875 -0.515625 L 4.875 0 L 0.90625 0 L 0.90625 -5.59375 L 4.75 -5.59375 L 4.75 -5.09375 L 1.5 -5.09375 L 1.5 -3.09375 L 4.40625 -3.09375 L 4.40625 -2.59375 L 1.5 -2.59375 L 1.5 -0.515625 Z M 4.875 -0.515625 "/></g></g></g><g fill="#011c43" fill-opacity="1"><g transform="translate(53.055801, 88.779796)"><g><path d="M 0.90625 -5.59375 L 1.5 -5.59375 L 1.5 -0.515625 L 4.640625 -0.515625 L 4.640625 0 L 0.90625 0 Z M 0.90625 -5.59375 "/></g></g></g><g fill="#011c43" fill-opacity="1"><g transform="translate(60.461802, 88.779796)"><g/></g></g><g fill="#011c43" fill-opacity="1"><g transform="translate(65.249985, 88.779796)"><g><path d="M 1.5 -5.09375 L 1.5 -2.890625 L 4.40625 -2.890625 L 4.40625 -2.375 L 1.5 -2.375 L 1.5 0 L 0.90625 0 L 0.90625 -5.59375 L 4.75 -5.59375 L 4.75 -5.09375 Z M 1.5 -5.09375 "/></g></g></g><g fill="#011c43" fill-opacity="1"><g transform="translate(73.008233, 88.779796)"><g><path d="M 3.171875 0.046875 C 2.441406 0.046875 1.875 -0.160156 1.46875 -0.578125 C 1.0625 -0.992188 0.859375 -1.597656 0.859375 -2.390625 L 0.859375 -5.59375 L 1.453125 -5.59375 L 1.453125 -2.421875 C 1.453125 -1.765625 1.597656 -1.273438 1.890625 -0.953125 C 2.191406 -0.640625 2.617188 -0.484375 3.171875 -0.484375 C 3.734375 -0.484375 4.160156 -0.640625 4.453125 -0.953125 C 4.742188 -1.273438 4.890625 -1.765625 4.890625 -2.421875 L 4.890625 -5.59375 L 5.46875 -5.59375 L 5.46875 -2.390625 C 5.46875 -1.597656 5.265625 -0.992188 4.859375 -0.578125 C 4.453125 -0.160156 3.890625 0.046875 3.171875 0.046875 Z M 3.171875 0.046875 "/></g></g></g><g fill="#011c43" fill-opacity="1"><g transform="translate(82.039364, 88.779796)"><g><path d="M 2 -5.09375 L 0.03125 -5.09375 L 0.03125 -5.59375 L 4.5625 -5.59375 L 4.5625 -5.09375 L 2.59375 -5.09375 L 2.59375 0 L 2 0 Z M 2 -5.09375 "/></g></g></g><g fill="#011c43" fill-opacity="1"><g transform="translate(89.325279, 88.779796)"><g><path d="M 3.171875 0.046875 C 2.441406 0.046875 1.875 -0.160156 1.46875 -0.578125 C 1.0625 -0.992188 0.859375 -1.597656 0.859375 -2.390625 L 0.859375 -5.59375 L 1.453125 -5.59375 L 1.453125 -2.421875 C 1.453125 -1.765625 1.597656 -1.273438 1.890625 -0.953125 C 2.191406 -0.640625 2.617188 -0.484375 3.171875 -0.484375 C 3.734375 -0.484375 4.160156 -0.640625 4.453125 -0.953125 C 4.742188 -1.273438 4.890625 -1.765625 4.890625 -2.421875 L 4.890625 -5.59375 L 5.46875 -5.59375 L 5.46875 -2.390625 C 5.46875 -1.597656 5.265625 -0.992188 4.859375 -0.578125 C 4.453125 -0.160156 3.890625 0.046875 3.171875 0.046875 Z M 3.171875 0.046875 "/></g></g></g><g fill="#011c43" fill-opacity="1"><g transform="translate(98.35641, 88.779796)"><g><path d="M 4.734375 0 L 3.453125 -1.796875 C 3.304688 -1.785156 3.160156 -1.78125 3.015625 -1.78125 L 1.5 -1.78125 L 1.5 0 L 0.90625 0 L 0.90625 -5.59375 L 3.015625 -5.59375 C 3.722656 -5.59375 4.28125 -5.421875 4.6875 -5.078125 C 5.09375 -4.742188 5.296875 -4.28125 5.296875 -3.6875 C 5.296875 -3.25 5.179688 -2.878906 4.953125 -2.578125 C 4.734375 -2.273438 4.421875 -2.054688 4.015625 -1.921875 L 5.390625 0 Z M 2.984375 -2.28125 C 3.546875 -2.28125 3.972656 -2.398438 4.265625 -2.640625 C 4.554688 -2.890625 4.703125 -3.238281 4.703125 -3.6875 C 4.703125 -4.132812 4.554688 -4.476562 4.265625 -4.71875 C 3.972656 -4.96875 3.546875 -5.09375 2.984375 -5.09375 L 1.5 -5.09375 L 1.5 -2.28125 Z M 2.984375 -2.28125 "/></g></g></g><g fill="#011c43" fill-opacity="1"><g transform="translate(106.835156, 88.779796)"><g><path d="M 3.359375 0.046875 C 2.804688 0.046875 2.300781 -0.078125 1.84375 -0.328125 C 1.394531 -0.578125 1.046875 -0.914062 0.796875 -1.34375 C 0.546875 -1.769531 0.421875 -2.253906 0.421875 -2.796875 C 0.421875 -3.335938 0.546875 -3.820312 0.796875 -4.25 C 1.046875 -4.6875 1.394531 -5.023438 1.84375 -5.265625 C 2.300781 -5.515625 2.804688 -5.640625 3.359375 -5.640625 C 3.910156 -5.640625 4.410156 -5.515625 4.859375 -5.265625 C 5.304688 -5.023438 5.65625 -4.6875 5.90625 -4.25 C 6.164062 -3.820312 6.296875 -3.335938 6.296875 -2.796875 C 6.296875 -2.253906 6.164062 -1.765625 5.90625 -1.328125 C 5.65625 -0.898438 5.304688 -0.5625 4.859375 -0.3125 C 4.410156 -0.0703125 3.910156 0.046875 3.359375 0.046875 Z M 3.359375 -0.484375 C 3.804688 -0.484375 4.207031 -0.582031 4.5625 -0.78125 C 4.914062 -0.976562 5.191406 -1.253906 5.390625 -1.609375 C 5.597656 -1.960938 5.703125 -2.359375 5.703125 -2.796875 C 5.703125 -3.234375 5.597656 -3.628906 5.390625 -3.984375 C 5.191406 -4.335938 4.914062 -4.613281 4.5625 -4.8125 C 4.207031 -5.019531 3.804688 -5.125 3.359375 -5.125 C 2.921875 -5.125 2.519531 -5.019531 2.15625 -4.8125 C 1.789062 -4.613281 1.503906 -4.335938 1.296875 -3.984375 C 1.097656 -3.628906 1 -3.234375 1 -2.796875 C 1 -2.359375 1.097656 -1.960938 1.296875 -1.609375 C 1.503906 -1.253906 1.789062 -0.976562 2.15625 -0.78125 C 2.519531 -0.582031 2.921875 -0.484375 3.359375 -0.484375 Z M 3.359375 -0.484375 "/></g></g></g></svg>